{"title":"SURFING - ASP_TEAHUPOO_2009","uid":5673930,"size":651679744,"categoryP":"other","categoryS":"other","magnet":"?xt=urn:btih:542b65eee0b66b488b9f48b3b26a5f1c9cfbf966&amp;dn=SURFING+-+ASP_TEAHUPOO_2009&amp;tr=udp%3A%2F%2Ftracker.openbittorrent.com%3A80&amp;tr=udp%3A%2F%2Fopen.demonii.com%3A1337&amp;tr=udp%3A%2F%2Ftracker.coppersurfer.tk%3A6969&amp;tr=udp%3A%2F%2Fexodus.desync.com%3A6969","seeders":0,"leechers":1,"uploader":"nightr","files":1,"time":1278457173,"description":"ASP_TEAHUPOO_2009.MPG\nFormat                           : MPEG-PS\nFile size                        : 621 MiB\nDuration                         : 37mn 7s\nOverall bit rate                 : 2 340 Kbps\n\nVideo\nID                               : 224 (0xE0)\nFormat                           : MPEG Video\nFormat version                   : Version 2\nFormat profile                   : Main@Main\nFormat settings, BVOP            : Yes\nFormat settings, Matrix          : Default\nDuration                         : 37mn 7s\nBit rate mode                    : Variable\nBit rate                         : 1 992 Kbps\nNominal bit rate                 : 9 549 Kbps\nWidth                            : 704 pixels\nHeight                           : 576 pixels\nDisplay aspect ratio             : 4:3\nFrame rate                       : 25.000 fps\nStandard                         : PAL\nResolution                       : 8 bits\nColorimetry                      : 4:2:0\nScan type                        : Interlaced\nScan order                       : Top Field First\nBits/(Pixel*Frame)               : 0.196\nStream size                      : 529 MiB (85%)\n\nAudio\nID                               : 128 (0x80)\nFormat                           : AC-3\nFormat/Info                      : Audio Coding 3\nDuration                         : 37mn 7s\nBit rate mode                    : Constant\nBit rate                         : 256 Kbps\nChannel(s)                       : 2 channels\nChannel positions                : L R\nSampling rate                    : 48.0 KHz\nStream size                      : 68.0 MiB (11%)","torrent":{"xt":"urn:btih:542b65eee0b66b488b9f48b3b26a5f1c9cfbf966","amp;dn":"SURFING+-+ASP_TEAHUPOO_2009","amp;tr":["udp%3A%2F%2Ftracker.openbittorrent.com%3A80","udp%3A%2F%2Fopen.demonii.com%3A1337","udp%3A%2F%2Ftracker.coppersurfer.tk%3A6969","udp%3A%2F%2Fexodus.desync.com%3A6969"],"infoHash":"542b65eee0b66b488b9f48b3b26a5f1c9cfbf966","infoHashBuffer":{"type":"Buffer","data":[84,43,101,238,224,182,107,72,139,159,72,179,178,106,95,28,156,251,249,102]},"announce":[],"urlList":[]}}